<svg xmlns="http://www.w3.org/2000/svg" width="32" height="32" viewBox="0 0 13 13" fill="none">
    <path d="M10.8107 1.20126C10.8011 1.80679 11.2791 2.3049 11.8717 2.31466C12.4643 2.32443 12.9518 1.83609 12.9613 1.23056C12.9709 0.625033 12.493 0.126954 11.9004 0.117188C11.3077 0.117188 10.8202 0.595734 10.8107 1.20126Z" fill="#7B6651"/>
  <path d="M1.1476 1.08422C1.13804 1.68974 1.61595 2.18785 2.20857 2.19762C2.80119 2.20738 3.28868 1.71904 3.29823 1.11352C3.30779 0.507989 2.82986 0.00991054 2.23724 0.000143991C1.64462 -0.00962256 1.15716 0.478691 1.1476 1.08422Z" fill="#7B6651"/>
  <path d="M10.715 9.99145C10.7054 10.597 11.1833 11.0951 11.7759 11.1048C12.3686 11.1146 12.8561 10.6263 12.8656 10.0207C12.8752 9.41522 12.3972 8.91714 11.8046 8.90737C11.2024 8.89761 10.715 9.37615 10.715 9.99145Z" fill="#7B6651"/>
  <path d="M1.04213 9.86435C1.03257 10.4699 1.51051 10.968 2.10313 10.9777C2.69575 10.9875 3.18321 10.4992 3.19277 9.89364C3.20232 9.28812 2.72442 8.79004 2.1318 8.78027C1.53918 8.78027 1.05169 9.25882 1.04213 9.86435Z" fill="#7B6651"/>
  <path d="M10.6095 18.7717C10.6 19.3773 11.0779 19.8754 11.6705 19.8851C12.2631 19.8949 12.7506 19.4066 12.7601 18.801C12.7697 18.1955 12.2918 17.6974 11.6992 17.6876C11.097 17.6779 10.6191 18.1662 10.6095 18.7717Z" fill="#7B6651"/>
  <path d="M0.936664 18.6545C0.927106 19.2601 1.40501 19.7582 1.99763 19.7679C2.59025 19.7777 3.07774 19.2894 3.0873 18.6838C3.09686 18.0783 2.61892 17.5802 2.0263 17.5705C1.43368 17.5607 0.946223 18.049 0.936664 18.6545Z" fill="#7B6651"/>
  </svg>