<svg width="28" height="28" viewBox="0 0 28 28" fill="none" xmlns="http://www.w3.org/2000/svg">
<path d="M22.68 1.91799C22.68 1.91799 25.032 3.82199 26.404 5.10999C26.32 5.41799 25.984 5.55799 25.592 5.55799H0.616L0.392 4.77399H20.608L22.68 1.91799ZM10.164 0.65799C18.676 0.349989 15.288 7.01399 11.704 4.57799C11.564 3.17799 10.808 1.69399 9.996 0.79799L10.164 0.65799ZM19.432 14.574L21.672 12.586L25.116 15.862C24.864 16.114 24.584 16.198 23.94 16.226C20.944 17.066 15.988 17.794 12.712 18.102L12.572 17.906C14.896 17.066 18.144 15.61 19.768 14.574H19.432ZM16.184 17.038C16.128 17.458 15.848 17.682 15.288 17.766V22.89C15.288 25.606 14.588 27.006 9.912 27.37C9.8 26.11 9.632 25.242 9.072 24.626C8.54 24.066 7.924 23.646 6.188 23.338V23.002C6.188 23.002 9.828 23.226 10.472 23.226C10.836 23.226 10.976 23.114 10.976 22.778V16.646L16.184 17.038ZM17.164 7.51799L18.928 5.55799L22.708 8.35799C22.54 8.58199 22.204 8.83399 21.616 8.97399V12.614C21.588 12.81 19.46 13.426 18.172 13.426H17.444V7.51799H17.164ZM9.072 12.81C9.072 13.146 7.224 14.014 5.572 14.014H5.012V5.92199L9.296 7.51799H18.984V8.30199H9.072V12.81ZM19.376 11.494V12.278H7.28V11.494H19.376ZM21.28 14.574V15.358H2.744L2.492 14.574H21.28ZM22.96 16.87C22.96 16.87 25.312 18.718 26.712 19.95C26.656 20.258 26.32 20.398 25.9 20.398H0.224L0 19.614H20.888L22.96 16.87Z" fill="#7B6651"/>
</svg>
